<svg width="24" height="24" viewBox="0 0 15 15" fill="none" xmlns="http://www.w3.org/2000/svg">
<path fill-rule="evenodd" clip-rule="evenodd" d="M6.30425 2.27467C6.32224 1.98349 6.5082 1.72947 6.78032 1.62433L10.308 0.261354C10.4811 0.194458 10.673 0.194458 10.8461 0.261354L14.3738 1.62433C14.6459 1.72947 14.8319 1.98349 14.8499 2.27467L14.9872 4.49647C15.1413 6.98934 13.9 9.36196 11.7641 10.6568L10.9641 11.1418C10.7262 11.286 10.4279 11.286 10.19 11.1418L9.38998 10.6568C7.25417 9.36196 6.01281 6.98934 6.1669 4.49647L6.30425 2.27467ZM10.5771 1.19785L13.89 2.47789L14.0185 4.55634C14.1504 6.68913 13.0883 8.71905 11.261 9.82681L10.5771 10.2414L9.89313 9.82681C8.06582 8.71905 7.00377 6.68913 7.13559 4.55634L7.26408 2.47789L10.5771 1.19785Z" fill="#7691B2"/>
<path d="M4.90099 3.88089C5.09458 3.95568 5.21916 4.14531 5.21099 4.35267C5.19789 4.68517 4.86161 4.90614 4.55121 4.7862L4.423 4.73669L1.11002 6.01672L0.981535 8.09515C0.849709 10.228 1.91176 12.2579 3.73907 13.3656L4.423 13.7803L5.10695 13.3656C5.97566 12.839 6.67141 12.1039 7.14817 11.2485C7.18427 11.1837 7.21912 11.1182 7.25269 11.0521C7.40109 10.7598 7.78705 10.6582 8.03717 10.8701C8.19529 11.004 8.24903 11.2263 8.15765 11.4123C8.094 11.5418 8.02621 11.6693 7.95438 11.7945C7.39859 12.763 6.60051 13.5952 5.61009 14.1956L4.81004 14.6806C4.57217 14.8248 4.27386 14.8248 4.03598 14.6806L3.23594 14.1956C1.10013 12.9008 -0.141248 10.5282 0.0128477 8.03528L0.150187 5.81348C0.168187 5.52232 0.354135 5.2683 0.626279 5.16315L4.15394 3.80017C4.32709 3.73328 4.51894 3.73328 4.69207 3.80017L4.90099 3.88089Z" fill="#7691B2"/>
</svg>
