<svg preserveAspectRatio="none" width="100%" height="100%" overflow="visible" style="display: block;" viewBox="0 0 20 20" fill="none" xmlns="http://www.w3.org/2000/svg">
<g id="Group 1171276485">
<circle id="Ellipse 51" cx="10" cy="10" r="10" fill="var(--fill-0, #6E16DF)"/>
<path id="Vector" d="M4.00489 6.30423C4.22681 6.27491 4.79318 6.29746 5.03471 6.29559C5.47744 6.29881 5.94916 6.28831 6.38878 6.30029C7.6176 6.33342 7.6626 7.28953 7.63039 8.30923C7.60341 9.16324 7.66996 10.0719 7.61956 10.9257C7.76497 10.6863 7.98956 10.1946 8.1237 9.92287L9.06178 8.02739C9.51297 7.11516 9.77014 6.28879 10.8996 6.29112C12.4004 6.29425 12.2053 7.61845 12.2051 8.7415L12.2061 10.9291L13.4141 8.57147C13.633 8.14648 13.8498 7.71238 14.0726 7.29356C14.3055 6.85944 14.5838 6.48602 15.0765 6.35907C15.6564 6.20966 16.7753 6.26583 16.9685 7.01526C17.0956 7.50806 16.8127 7.98252 16.575 8.39262L16.2275 8.99593C15.8212 9.72908 15.3754 10.4762 14.957 11.2063L14.2396 12.4554C14.003 12.8656 13.663 13.4899 13.3365 13.7993C12.5482 14.5465 10.782 14.465 10.2871 13.3735C10.0496 12.8495 10.0959 12.3707 10.0968 11.823C10.0967 11.3951 10.1009 10.9673 10.1096 10.5395C10.0122 10.6852 9.87711 10.9838 9.78866 11.1563L9.23579 12.2308C8.97686 12.7353 8.69509 13.3236 8.31097 13.7356C7.64819 14.4464 6.16304 14.4732 5.47887 13.7824C5.01677 13.3158 4.97542 12.6743 4.99177 12.0466C4.99641 11.869 4.98099 11.6836 4.98279 11.5054C5.00004 10.986 4.98455 10.4705 4.98211 9.95219L4.98078 8.39768C4.25023 8.40321 3.13097 8.57546 3.0109 7.50486C2.92862 6.77099 3.31721 6.37034 4.00489 6.30423Z" fill="var(--fill-0, #FEFEFE)"/>
</g>
</svg>
