<svg width="20" height="20" viewBox="0 0 20 20" fill="none" xmlns="http://www.w3.org/2000/svg">
<circle cx="10" cy="10" r="10" fill="#6E16DF"/>
<path d="M12.6832 4.43213H7.31667L5.41168 5.82907V9.66409C5.41168 10.9821 6.64646 13.5576 9.99994 15.5059C13.3534 13.5576 14.5882 10.9821 14.5882 9.66409V5.82907L12.6832 4.43213Z" fill="white"/>
<path d="M14.5888 5.82907V9.66409C14.5888 10.9821 13.354 13.5576 10.0005 15.5059V4.43213H12.6838L14.5888 5.82907Z" fill="#C6E1EC"/>
<path d="M12.8126 4H7.18706L5.00006 5.60378V9.66409C5.00006 10.507 5.40663 11.5781 6.11523 12.6026C6.97802 13.85 8.2523 14.9848 9.80065 15.8842L9.99982 16L10.199 15.8842C11.7473 14.9848 13.0216 13.85 13.8844 12.6026C14.593 11.5781 14.9996 10.507 14.9996 9.66409V5.60378L12.8126 4ZM14.1766 9.66409C14.1766 10.8138 13.0598 13.1615 9.99982 15.0098C6.93988 13.1615 5.82307 10.8138 5.82307 9.66409V6.05435L7.44603 4.86426H12.5536L14.1766 6.05435V9.66409Z" fill="#EFF5FA"/>
<path d="M15.0002 5.60378V9.66409C15.0002 10.507 14.5937 11.5781 13.8851 12.6026C13.0223 13.85 11.748 14.9848 10.1997 15.8842L10.0005 16V15.0098C13.0604 13.1615 14.1772 10.8138 14.1772 9.66409V6.05435L12.5543 4.86426H10.0005V4H12.8132L15.0002 5.60378Z" fill="#C6E1EC"/>
</svg>
