<svg preserveAspectRatio="none" width="100%" height="100%" overflow="visible" style="display: block;" viewBox="0 0 20 20" fill="none" xmlns="http://www.w3.org/2000/svg">
<g id="Group 1171276490">
<circle id="Ellipse 52" cx="10" cy="10" r="10" fill="var(--fill-0, #6E16DF)"/>
<g id="Icon">
<path id="Vector" d="M9.72001 9.78321C11.4152 9.78321 12.7894 8.40899 12.7894 6.7138C12.7894 5.01862 11.4152 3.6444 9.72001 3.6444C8.02483 3.6444 6.65061 5.01862 6.65061 6.7138C6.65061 8.40899 8.02483 9.78321 9.72001 9.78321Z" fill="var(--fill-0, white)"/>
<path id="Vector_2" fill-rule="evenodd" clip-rule="evenodd" d="M9.58073 15.0913V13.9445C9.58073 13.685 9.68342 13.4366 9.86703 13.2536L10.9776 12.143C10.9502 11.5381 11.1199 10.9253 11.4843 10.4096C10.9302 10.3153 10.3369 10.264 9.72025 10.264C7.86633 10.264 6.22504 10.7277 5.206 11.4226C4.4286 11.9527 4 12.6263 4 13.3334V14.1426C4 14.3943 4.0999 14.6359 4.27792 14.8134C4.45595 14.9914 4.69703 15.0913 4.94872 15.0913H9.58073Z" fill="var(--fill-0, white)"/>
<path id="Vector_3" fill-rule="evenodd" clip-rule="evenodd" d="M13.4323 14.227C14.1087 14.3286 14.8236 14.1188 15.3443 13.5981C16.216 12.7264 16.216 11.3111 15.3443 10.44C14.4731 9.56825 13.0579 9.56825 12.1862 10.44C11.6655 10.9606 11.4556 11.6755 11.5572 12.3525L10.2614 13.6478C10.1827 13.7265 10.1386 13.833 10.1386 13.9441V15.2271C10.1386 15.4582 10.3261 15.6457 10.5571 15.6457H11.8402C11.9512 15.6457 12.0578 15.6016 12.1365 15.5229L13.4323 14.227ZM13.3375 12.4468C13.1014 12.2107 13.1014 11.8273 13.3375 11.5913C13.5735 11.3552 13.9569 11.3552 14.193 11.5913C14.4291 11.8273 14.4291 12.2107 14.193 12.4468C13.9569 12.6829 13.5735 12.6829 13.3375 12.4468Z" fill="var(--fill-0, #C6E1EC)"/>
</g>
</g>
</svg>
