<svg preserveAspectRatio="none" width="100%" height="100%" overflow="visible" style="display: block;" viewBox="0 0 20 20" fill="none" xmlns="http://www.w3.org/2000/svg">
<g id="Group 1171276489">
<circle id="Ellipse 53" cx="10" cy="10" r="10" fill="var(--fill-0, #6E16DF)"/>
<g id="Group 1171276488">
<path id="Vector" d="M12.9106 5C13.3143 5.43684 13.7822 5.88021 14.2007 6.30759C14.3655 6.47588 14.8303 6.95644 14.9976 7.08366C14.4412 7.67364 13.8186 8.27452 13.2447 8.85341C12.9256 9.17531 12.4121 9.71967 12.0891 9.99727C12.3161 10.2051 12.5396 10.4326 12.7557 10.653C13.4973 11.4092 14.2641 12.1472 15 12.9086C14.6615 13.1985 14.1994 13.6935 13.8716 14.0198C13.6127 14.2775 13.1284 14.7411 12.9133 15L10.0449 12.1252L10 12.1111C10.0399 11.9678 10.0364 8.24328 10.0004 7.88366L10.0689 7.8687C10.111 7.79426 10.2103 7.69662 10.2742 7.63564C11.1627 6.78876 12.0108 5.829 12.9106 5Z" fill="var(--fill-0, #C6E1EC)"/>
<path id="Vector_2" d="M7.08922 5C8.034 5.95875 9.01164 6.94721 9.97169 7.88864C10.0077 8.24811 10.0112 11.971 9.97132 12.1142C9.82104 12.2338 9.28343 12.8007 9.10688 12.9782C8.43753 13.6564 7.76392 14.3303 7.08609 15C7.00181 14.9018 6.88873 14.7868 6.79339 14.6969C6.1912 14.1293 5.61695 13.4576 5 12.9114C5.36527 12.5174 5.81188 12.0882 6.19502 11.7037C6.7588 11.1338 7.32593 10.5672 7.89635 10.004L5.0022 7.09755C5.66189 6.46291 6.46508 5.66537 7.08922 5Z" fill="var(--fill-0, #FEFEFE)"/>
</g>
</g>
</svg>
