<svg preserveAspectRatio="none" width="100%" height="100%" overflow="visible" style="display: block;" viewBox="0 0 20 20" fill="none" xmlns="http://www.w3.org/2000/svg">
<g id="Group 1171276359">
<circle id="Ellipse 31" cx="10" cy="10" r="10" fill="var(--fill-0, #6E16DF)"/>
<g id="Group 1171276358">
<path id="Vector 8" d="M9.19713 13.2892C13.5322 11.6054 14.3237 8.16416 15.5305 4.93196C15.7291 4.40001 15.1357 3.84437 14.6301 4.10279C11.555 5.67451 7.77189 7.75403 7.21183 11.6009C7.91772 12.0771 9.19713 13.2892 9.19713 13.2892Z" fill="var(--fill-0, white)"/>
<path id="Vector 9" d="M7.93272 14.6358C9.56409 14.3743 9.77661 13.3186 9.4678 12.5946C9.237 12.0031 8.71474 11.5745 8.08955 11.4636L7.92039 11.4336C7.59261 11.4226 6.81224 11.2922 5.65731 12.8428C4.21365 14.781 6.52684 17.154 6.31254 16.8767C6.09825 16.5995 5.89351 14.9628 7.93272 14.6358Z" fill="var(--fill-0, #C6E1EC)"/>
<path id="Vector 10" d="M7.93286 14.6359C9.56422 14.3744 9.77675 13.3187 9.46794 12.5947L8.49235 13.4215C8.13112 13.7277 7.67297 13.8957 7.19946 13.8957C6.31269 14.8011 6.81237 11.2923 5.65744 12.8429C4.21378 14.7811 6.52697 17.1541 6.31268 16.8768C6.09838 16.5996 5.89365 14.9629 7.93286 14.6359Z" fill="var(--fill-0, #C6E1EC)"/>
</g>
</g>
</svg>
