<svg preserveAspectRatio="none" width="100%" height="100%" overflow="visible" style="display: block;" viewBox="0 0 196.366 72" fill="none" xmlns="http://www.w3.org/2000/svg">
<g id="Group">
<g id="Vector">
<path d="M60.6699 69.1628L64.5404 59.7909H65.7016L61.8956 69.1628H60.6699ZM62.4762 66.4851V65.465H67.7336V66.4851H62.4762ZM68.3787 69.1628L64.5727 59.7909H65.7338L69.6043 69.1628H68.3787Z" fill="#7691B2"/>
<path d="M70.3784 69.1628V59.7909H71.475V69.1628H70.3784Z" fill="#7691B2"/>
<path d="M73.0878 69.1628V59.7909H74.1844V69.1628H73.0878Z" fill="#7691B2"/>
<path d="M75.6358 64.7H79.6998V65.6882H75.6358V64.7Z" fill="#7691B2"/>
<path d="M81.5058 69.1628V59.7909H82.667V69.1628H81.5058Z" fill="#7691B2"/>
<path d="M84.5697 69.1629V62.4687H85.5696L85.6341 63.7119V69.1629H84.5697ZM89.3433 65.7202C89.3433 65.0508 89.2788 64.5408 89.1176 64.222C88.9563 63.8713 88.7628 63.6482 88.4725 63.5207C88.2144 63.3932 87.8919 63.3294 87.5371 63.3294C86.9565 63.3294 86.4727 63.5526 86.1502 63.967C85.8276 64.3814 85.6664 64.9552 85.6664 65.7202H85.1503C85.1503 65.0189 85.2471 64.4132 85.4728 63.9032C85.6986 63.3932 85.9889 63.0106 86.376 62.7238C86.763 62.4687 87.2468 62.3094 87.8274 62.3094C88.3757 62.3094 88.8273 62.405 89.2143 62.6281C89.6014 62.8513 89.9239 63.17 90.1497 63.6163C90.3755 64.0626 90.4722 64.6683 90.4722 65.4014V65.7202H89.3433ZM89.3433 69.1629V65.7202H90.44V69.1629H89.3433Z" fill="#7691B2"/>
<path d="M91.6979 64.7H95.7619V65.6882H91.6979V64.7Z" fill="#7691B2"/>
<path d="M101.6 69.3223C100.697 69.3223 99.8905 69.131 99.1809 68.7166C98.4713 68.3022 97.923 67.7284 97.5359 66.9952C97.1489 66.2621 96.9553 65.4333 96.9553 64.477C96.9553 63.5206 97.1489 62.6918 97.5359 61.9587C97.923 61.2255 98.4713 60.6517 99.1809 60.2373C99.8905 59.8229 100.665 59.6316 101.6 59.6316C102.535 59.6316 103.309 59.8548 104.019 60.2692C104.729 60.6836 105.277 61.2574 105.664 61.9905C106.051 62.7237 106.245 63.5525 106.245 64.5088C106.245 65.4651 106.051 66.2939 105.664 67.0271C105.277 67.7603 104.729 68.3341 104.051 68.7485C103.309 69.0991 102.503 69.3223 101.6 69.3223ZM101.6 68.3022C102.277 68.3022 102.858 68.1428 103.374 67.8241C103.89 67.5053 104.277 67.059 104.6 66.4852C104.89 65.9114 105.051 65.242 105.051 64.5088C105.051 63.7757 104.89 63.1062 104.6 62.5324C104.309 61.9587 103.89 61.5124 103.374 61.1936C102.858 60.8748 102.245 60.7154 101.568 60.7154C100.89 60.7154 100.278 60.8748 99.7614 61.1936C99.2454 61.5124 98.8261 61.9587 98.5358 62.5324C98.2455 63.1062 98.0842 63.7757 98.0842 64.5088C98.0842 65.2739 98.2455 65.9114 98.5358 66.4852C98.8261 67.059 99.2454 67.5053 99.7937 67.8241C100.342 68.1428 100.923 68.3022 101.6 68.3022Z" fill="#7691B2"/>
<path d="M107.503 69.1629V62.4687H108.535L108.6 63.7119V69.1629H107.503ZM112.245 65.7202C112.245 65.0508 112.18 64.5408 112.019 64.222C111.858 63.8713 111.664 63.6482 111.374 63.5207C111.116 63.3932 110.793 63.3294 110.438 63.3294C109.858 63.3294 109.374 63.5526 109.051 63.967C108.729 64.3814 108.568 64.9552 108.568 65.7202H108.052C108.052 65.0189 108.148 64.4132 108.374 63.9032C108.568 63.3932 108.89 63.0106 109.277 62.7238C109.664 62.4369 110.148 62.3094 110.729 62.3094C111.277 62.3094 111.729 62.405 112.116 62.6281C112.503 62.8513 112.825 63.17 113.051 63.6163C113.277 64.0626 113.374 64.6683 113.374 65.4014V65.7202H112.245ZM112.245 69.1629V65.7202H113.341V69.1629H112.245Z" fill="#7691B2"/>
<path d="M117.76 69.3223C117.115 69.3223 116.502 69.1629 116.018 68.876C115.502 68.5892 115.115 68.1747 114.825 67.6328C114.535 67.0909 114.406 66.4853 114.406 65.8158C114.406 65.1464 114.535 64.5089 114.825 63.9988C115.115 63.4888 115.502 63.0744 116.018 62.7556C116.534 62.4687 117.083 62.3094 117.76 62.3094C118.405 62.3094 118.953 62.4687 119.405 62.7556C119.857 63.0744 120.211 63.4888 120.469 64.0626C120.727 64.6045 120.856 65.2739 120.856 66.0071H115.276L115.534 65.784C115.534 66.3259 115.631 66.7721 115.825 67.1547C116.018 67.5372 116.276 67.8241 116.631 68.0472C116.986 68.2385 117.373 68.3341 117.825 68.3341C118.308 68.3341 118.695 68.2066 119.05 67.9835C119.373 67.7603 119.631 67.4734 119.824 67.0909L120.76 67.5691C120.598 67.9197 120.373 68.2066 120.082 68.4935C119.792 68.7804 119.469 68.9398 119.082 69.0992C118.695 69.2586 118.212 69.3223 117.76 69.3223ZM115.567 65.3377L115.276 65.1145H119.953L119.663 65.3377C119.663 64.9233 119.566 64.5408 119.405 64.222C119.244 63.9032 119.018 63.6801 118.728 63.4888C118.437 63.3294 118.115 63.2338 117.728 63.2338C117.373 63.2338 117.018 63.3294 116.663 63.4888C116.341 63.6482 116.083 63.9032 115.857 64.1901C115.663 64.5408 115.567 64.8914 115.567 65.3377Z" fill="#7691B2"/>
<path d="M125.307 69.1628V59.7909H126.468V68.1427H130.952V69.1628H125.307Z" fill="#7691B2"/>
<path d="M134.758 69.3221C134.113 69.3221 133.5 69.1627 133.016 68.8758C132.5 68.5889 132.113 68.1745 131.823 67.6326C131.532 67.0907 131.403 66.485 131.403 65.8156C131.403 65.1462 131.532 64.5086 131.823 63.9986C132.113 63.4885 132.5 63.0741 133.016 62.7554C133.532 62.4685 134.113 62.3091 134.758 62.3091C135.435 62.3091 136.016 62.4685 136.532 62.7554C137.048 63.0423 137.435 63.4567 137.725 63.9986C138.015 64.5405 138.144 65.1462 138.144 65.8156C138.144 66.485 138.015 67.1225 137.725 67.6326C137.435 68.1745 137.048 68.557 136.532 68.8758C135.983 69.1627 135.403 69.3221 134.758 69.3221ZM134.758 68.3339C135.209 68.3339 135.596 68.2382 135.951 68.0151C136.274 67.792 136.564 67.5051 136.757 67.1225C136.951 66.74 137.048 66.3256 137.048 65.8156C137.048 65.3055 136.951 64.8911 136.757 64.5086C136.564 64.1261 136.306 63.8392 135.951 63.6161C135.596 63.3929 135.209 63.2973 134.758 63.2973C134.306 63.2973 133.919 63.3929 133.597 63.6161C133.274 63.8392 132.984 64.1261 132.79 64.5086C132.597 64.8911 132.5 65.3055 132.5 65.8156C132.5 66.2937 132.597 66.74 132.79 67.1225C132.984 67.5051 133.242 67.792 133.597 68.0151C133.951 68.2382 134.306 68.3339 134.758 68.3339Z" fill="#7691B2"/>
<path d="M142.015 69.0992C141.402 69.0992 140.886 68.9717 140.402 68.6848C139.919 68.3979 139.596 68.0154 139.338 67.4734C139.08 66.9634 138.951 66.3577 138.951 65.7202C138.951 65.0508 139.08 64.4451 139.338 63.9351C139.596 63.4251 139.951 63.0106 140.402 62.7238C140.854 62.4369 141.402 62.3094 142.015 62.3094C142.596 62.3094 143.079 62.4369 143.499 62.7238C143.918 63.0106 144.241 63.3932 144.499 63.9351C144.724 64.4451 144.853 65.0508 144.853 65.7202C144.853 66.3896 144.724 66.9634 144.499 67.4734C144.273 67.9835 143.918 68.366 143.499 68.6529C143.079 68.9717 142.563 69.0992 142.015 69.0992ZM142.047 72C141.628 72 141.209 71.9681 140.854 71.8725C140.499 71.7769 140.209 71.6812 139.951 71.5856C139.693 71.49 139.532 71.3943 139.403 71.3306L139.822 70.4699C139.951 70.5337 140.112 70.5974 140.338 70.693C140.564 70.7887 140.822 70.8524 141.112 70.9481C141.402 71.0118 141.725 71.0437 142.047 71.0437C142.467 71.0437 142.886 70.9481 143.209 70.7887C143.563 70.6293 143.821 70.3424 144.015 69.9599C144.208 69.5773 144.305 69.0992 144.305 68.5254V62.4687H145.402V68.5254C145.402 69.2905 145.273 69.928 144.982 70.438C144.692 70.9481 144.305 71.3306 143.789 71.6175C143.273 71.8725 142.692 72 142.047 72ZM142.273 68.1747C142.66 68.1747 143.015 68.0791 143.338 67.856C143.66 67.6328 143.886 67.3459 144.047 66.9634C144.208 66.5809 144.305 66.1665 144.305 65.6565C144.305 65.1783 144.208 64.7639 144.047 64.3814C143.886 63.9988 143.628 63.7119 143.338 63.5207C143.047 63.2975 142.692 63.2019 142.273 63.2019C141.854 63.2019 141.467 63.2975 141.144 63.5207C140.822 63.7438 140.564 64.0307 140.37 64.3814C140.177 64.7639 140.08 65.1783 140.08 65.6565C140.08 66.1346 140.177 66.5809 140.37 66.9634C140.564 67.3459 140.822 67.6328 141.144 67.856C141.467 68.0791 141.854 68.1747 142.273 68.1747Z" fill="#7691B2"/>
<path d="M147.659 60.9066C147.465 60.9066 147.336 60.8428 147.175 60.7153C147.014 60.5878 146.981 60.4284 146.981 60.2371C146.981 60.0459 147.046 59.8865 147.175 59.759C147.304 59.6315 147.465 59.5677 147.659 59.5677C147.852 59.5677 148.014 59.6315 148.143 59.759C148.272 59.8865 148.336 60.0459 148.336 60.2371C148.336 60.4284 148.272 60.5559 148.143 60.7153C147.981 60.8428 147.82 60.9066 147.659 60.9066ZM147.078 69.1627V62.4685H148.175V69.1627H147.078Z" fill="#7691B2"/>
<path d="M149.885 69.1629V62.4687H150.884L150.949 63.7119V69.1629H149.885ZM154.658 65.7202C154.658 65.0508 154.594 64.5408 154.432 64.222C154.271 63.8713 154.078 63.6482 153.787 63.5207C153.529 63.3932 153.207 63.3294 152.852 63.3294C152.271 63.3294 151.788 63.5526 151.465 63.967C151.142 64.3814 150.981 64.9552 150.981 65.7202H150.465C150.465 65.0189 150.562 64.4132 150.788 63.9032C150.981 63.3932 151.304 63.0106 151.691 62.7238C152.078 62.4687 152.562 62.3094 153.142 62.3094C153.691 62.3094 154.142 62.405 154.529 62.6281C154.916 62.8513 155.239 63.17 155.464 63.6163C155.69 64.0626 155.787 64.6683 155.787 65.4014V65.7202H154.658ZM154.658 69.1629V65.7202H155.755V69.1629H154.658Z" fill="#7691B2"/>
<path d="M32.802 56.0084C32.802 53.0119 30.3507 50.6211 27.3511 50.6211C24.3192 50.6211 21.9002 53.0438 21.9002 56.0084C21.9002 57.8572 22.8355 59.5148 24.287 60.4712L22.513 70.4487H32.157L30.4152 60.4712C31.8667 59.483 32.802 57.8572 32.802 56.0084Z" fill="var(--fill-0, #404280)"/>
<path d="M3.54758 49.9196C3.54758 56.4544 5.90213 62.6067 10.2564 66.8782L27.3511 26.3943C14.1914 26.3943 3.54758 36.9137 3.54758 49.9196Z" fill="#00CC99"/>
<path d="M27.3515 26.3623L44.4784 66.7825C48.7682 62.511 51.155 56.3587 51.155 49.8876C51.155 36.9137 40.5112 26.3942 27.3515 26.3623Z" fill="#FFBA08"/>
<path d="M9.03536 36.5148C7.42184 36.5148 6.13102 35.2392 6.13102 33.6447V20.9841C6.13102 9.40776 15.6508 0 27.365 0C39.0792 0 48.599 9.40776 48.599 20.9841C48.599 22.5786 47.3082 23.8542 45.6946 23.8542C44.0811 23.8542 42.7903 22.5786 42.7903 20.9841C42.7903 12.5968 35.8844 5.74032 27.365 5.74032C18.8456 5.74032 11.9397 12.5649 11.9397 20.9841V33.6447C11.9397 35.2392 10.6489 36.5148 9.03536 36.5148Z" fill="url(#paint0_linear_0_35)"/>
<path d="M10.262 70.7017C9.32617 70.7017 8.4226 70.3509 7.77719 69.6812C2.8398 64.8657 0 57.7541 0 50.2598C0 35.5263 12.0046 23.4716 26.8813 23.2164C27.0427 23.1846 27.204 23.1846 27.3654 23.1846C27.5267 23.1846 27.6881 23.1846 27.8494 23.2164C42.6939 23.4716 54.7308 35.4944 54.7308 50.2598C54.7308 57.7222 51.9232 64.8019 47.0181 69.6493C46.1791 70.4784 44.9851 70.8292 43.8233 70.606C42.6616 70.3828 41.6935 69.5855 41.2417 68.5331L27.3654 35.8133L13.5536 68.5331C13.1018 69.6174 12.1337 70.3828 10.972 70.6379C10.7138 70.6698 10.4879 70.7017 10.262 70.7017ZM21.6858 31.0297C13.2632 33.4534 7.09951 41.139 7.09951 50.2598C7.09951 53.7996 7.90627 57.2119 9.42298 60.114L21.6858 31.0297ZM33.045 31.0297L45.34 60.0502C46.8245 57.1481 47.6312 53.7677 47.6312 50.2279C47.6312 41.139 41.4676 33.4534 33.045 31.0297Z" fill="url(#paint1_linear_0_35)"/>
<path d="M60.8638 55.5194L69.766 33.2054H74.1848L65.5407 55.5194H60.8638ZM65.0569 50.6103V46.7532H79.2164V50.6103H65.0569ZM78.7004 55.5194L70.0563 33.2054H74.4751L83.3772 55.5194H78.7004Z" fill="var(--fill-0, #404280)"/>
<path d="M84.7964 55.5194V33.2054H89.2152V55.5194H84.7964Z" fill="var(--fill-0, #404280)"/>
<path d="M103.149 55.9019C100.859 55.9019 98.8593 55.3919 97.0853 54.4037C95.3114 53.4155 93.9567 52.0448 92.9568 50.3234C91.957 48.6021 91.4731 46.6257 91.4731 44.3943C91.4731 42.131 91.957 40.1227 92.9568 38.3695C93.9567 36.6481 95.3114 35.2774 97.0531 34.3211C98.7948 33.3329 100.762 32.8548 103.02 32.8548C105.31 32.8548 107.31 33.3648 109.052 34.3211C110.793 35.3093 112.148 36.68 113.116 38.4014C114.116 40.1227 114.599 42.131 114.599 44.3943C114.599 46.6257 114.116 48.6021 113.148 50.3234C112.18 52.0448 110.826 53.4155 109.084 54.4037C107.374 55.4238 105.375 55.9019 103.149 55.9019ZM103.149 51.9173C104.536 51.9173 105.729 51.5985 106.794 50.9291C107.826 50.2915 108.665 49.399 109.245 48.2833C109.826 47.1676 110.148 45.8606 110.148 44.3943C110.148 42.8961 109.858 41.5891 109.245 40.4734C108.632 39.3577 107.826 38.4651 106.762 37.8276C105.697 37.19 104.472 36.8394 103.085 36.8394C101.73 36.8394 100.504 37.1582 99.4399 37.8276C98.3755 38.497 97.5369 39.3577 96.9241 40.4734C96.3112 41.5891 96.021 42.8961 96.021 44.3943C96.021 45.8606 96.3112 47.1676 96.9241 48.2833C97.5369 49.399 98.3755 50.2915 99.4399 50.9291C100.504 51.5985 101.762 51.9173 103.149 51.9173Z" fill="var(--fill-0, #404280)"/>
<path d="M123.308 55.5194V33.2054H127.727V51.5347H137.661V55.5194H123.308Z" fill="var(--fill-0, #404280)"/>
<path d="M146.305 55.9018C144.66 55.9018 143.209 55.5512 141.951 54.818C140.661 54.1167 139.661 53.1285 138.951 51.8534C138.241 50.6102 137.887 49.1439 137.887 47.5182C137.887 45.8924 138.241 44.4261 138.951 43.1829C139.661 41.9397 140.661 40.9515 141.918 40.2183C143.176 39.517 144.628 39.1664 146.273 39.1664C147.918 39.1664 149.401 39.517 150.659 40.2183C151.917 40.9196 152.917 41.9078 153.627 43.1829C154.336 44.4261 154.691 45.8924 154.691 47.5182C154.691 49.1439 154.336 50.6102 153.627 51.8534C152.917 53.0967 151.917 54.0848 150.692 54.818C149.369 55.5512 147.95 55.9018 146.305 55.9018ZM146.305 52.0128C147.111 52.0128 147.789 51.8216 148.402 51.439C149.014 51.0565 149.466 50.5146 149.788 49.8452C150.111 49.1758 150.272 48.4107 150.272 47.5182C150.272 46.6575 150.111 45.8924 149.756 45.1911C149.401 44.5217 148.95 43.9798 148.305 43.6291C147.692 43.2466 146.982 43.0554 146.208 43.0554C145.434 43.0554 144.757 43.2466 144.112 43.6291C143.499 44.0117 143.015 44.5217 142.66 45.1911C142.306 45.8605 142.144 46.6256 142.144 47.5182C142.144 48.3788 142.306 49.1758 142.66 49.8452C143.015 50.5146 143.499 51.0565 144.112 51.439C144.789 51.8216 145.499 52.0128 146.305 52.0128Z" fill="var(--fill-0, #404280)"/>
<path d="M162.593 55.0731C161.11 55.0731 159.82 54.7543 158.755 54.1168C157.658 53.4793 156.82 52.5867 156.207 51.4391C155.594 50.2916 155.304 48.9208 155.304 47.3589C155.304 45.7012 155.594 44.2668 156.207 43.0554C156.82 41.8441 157.658 40.8878 158.755 40.2184C159.852 39.549 161.11 39.1983 162.593 39.1983C163.884 39.1983 165.012 39.5171 165.948 40.2184C166.883 40.8878 167.625 41.8441 168.141 43.0554C168.657 44.2987 168.915 45.765 168.915 47.4545C168.915 48.9846 168.657 50.3234 168.141 51.471C167.625 52.6186 166.883 53.5111 165.948 54.1168C165.012 54.7543 163.884 55.0731 162.593 55.0731ZM163.432 62.3092C162.206 62.3092 161.11 62.2136 160.174 62.0542C159.239 61.8948 158.433 61.6717 157.787 61.3848C157.142 61.0979 156.626 60.8429 156.207 60.556L157.884 57.177C158.175 57.3364 158.594 57.5277 159.078 57.7508C159.561 57.9739 160.174 58.1652 160.852 58.3246C161.529 58.484 162.335 58.5796 163.238 58.5796C164.109 58.5796 164.851 58.4202 165.528 58.1014C166.174 57.7827 166.69 57.2726 167.077 56.5713C167.464 55.87 167.657 55.0094 167.657 53.9255V39.5808H171.915V53.798C171.915 55.5832 171.56 57.1133 170.883 58.4202C170.205 59.6953 169.205 60.6835 167.98 61.3529C166.657 61.9905 165.174 62.3092 163.432 62.3092ZM163.819 51.5348C164.561 51.5348 165.206 51.3435 165.722 50.961C166.27 50.5784 166.69 50.0684 167.012 49.4309C167.302 48.7933 167.464 48.0283 167.464 47.1995C167.464 46.3388 167.302 45.6056 166.98 44.9681C166.657 44.3305 166.238 43.8205 165.69 43.4698C165.141 43.1192 164.496 42.9279 163.755 42.9279C163.013 42.9279 162.335 43.1192 161.755 43.4698C161.174 43.8205 160.723 44.3305 160.4 44.9681C160.078 45.6056 159.916 46.3388 159.884 47.1995C159.916 48.0283 160.078 48.7614 160.4 49.4309C160.723 50.1003 161.174 50.5784 161.787 50.961C162.4 51.3435 163.077 51.5348 163.819 51.5348Z" fill="var(--fill-0, #404280)"/>
<path d="M176.656 36.9987C176.011 36.9987 175.431 36.7437 174.947 36.2656C174.463 35.7874 174.205 35.2136 174.205 34.5442C174.205 33.8748 174.463 33.3329 174.947 32.8547C175.431 32.3766 176.011 32.1215 176.656 32.1215C177.334 32.1215 177.914 32.3766 178.398 32.8547C178.882 33.3329 179.14 33.9067 179.14 34.5442C179.14 35.2136 178.882 35.7874 178.398 36.2656C177.914 36.7437 177.334 36.9987 176.656 36.9987ZM174.528 55.5194V39.5808H178.785V55.5194H174.528Z" fill="var(--fill-0, #404280)"/>
<path d="M181.429 55.5191V39.5806H185.429L185.687 42.5133V55.5191H181.429ZM192.105 47.3586C192.105 46.2748 191.976 45.446 191.751 44.8403C191.492 44.2346 191.138 43.8202 190.686 43.5652C190.235 43.3102 189.719 43.1508 189.106 43.1508C188.009 43.1189 187.17 43.4696 186.59 44.139C186.009 44.8084 185.687 45.8285 185.687 47.1673H184.268C184.268 45.4778 184.526 44.0434 185.009 42.832C185.525 41.6526 186.235 40.76 187.138 40.1225C188.041 39.4849 189.106 39.198 190.364 39.198C191.622 39.198 192.718 39.4531 193.621 39.9631C194.524 40.4731 195.202 41.2701 195.686 42.322C196.169 43.4058 196.395 44.7765 196.363 46.4979V47.3586H192.105ZM192.105 55.5191V47.3586H196.363V55.5191H192.105Z" fill="var(--fill-0, #404280)"/>
</g>
</g>
<defs>
<linearGradient id="paint0_linear_0_35" x1="48.5907" y1="18.2592" x2="6.14112" y2="18.2592" gradientUnits="userSpaceOnUse">
<stop offset="5.45685e-07" stop-color="#9516DF"/>
<stop offset="1" stop-color="#405980"/>
</linearGradient>
<linearGradient id="paint1_linear_0_35" x1="27.3662" y1="70.7064" x2="27.3662" y2="23.17" gradientUnits="userSpaceOnUse">
<stop stop-color="#405980"/>
<stop offset="1" stop-color="#6D16DF"/>
</linearGradient>
</defs>
</svg>
