<svg width="24" height="24" viewBox="0 0 15 15" fill="none" xmlns="http://www.w3.org/2000/svg">
<path d="M8.3521 15C8.27466 15 8.20069 14.9798 8.1436 14.9431C8.07467 14.8989 8.02452 14.8185 8.00622 14.7228C7.98666 14.6212 8.00575 14.5207 8.05843 14.4468C9.52065 12.3582 10.3012 9.90644 10.317 7.35493V7.30547C10.317 5.86489 9.14338 4.69286 7.70088 4.69286C6.25963 4.69286 5.10338 5.81748 5.06869 7.25318V7.33776C5.05339 9.4065 4.15501 11.379 2.604 12.7486C2.54359 12.7994 2.45432 12.83 2.36174 12.83C2.2526 12.83 2.1515 12.7878 2.09156 12.7169C2.03258 12.6473 2.00229 12.5491 2.00829 12.4474C2.01412 12.3471 2.05529 12.2577 2.1209 12.2023C3.51767 10.9624 4.32614 9.18488 4.34207 7.32312V7.22483C4.35753 5.42039 5.85697 3.95114 7.68479 3.95114C9.49068 3.95114 10.9974 5.4289 11.0436 7.24515V7.33776C11.0281 10.0501 10.2006 12.6506 8.65067 14.8571C8.59247 14.9474 8.47938 15 8.3521 15ZM5.95066 14.846C5.85823 14.846 5.76896 14.8154 5.70603 14.7622C5.64026 14.7066 5.5991 14.6172 5.59326 14.5169C5.58727 14.4153 5.61755 14.3172 5.67638 14.2477C7.3766 12.3458 8.31456 9.87919 8.31456 7.30547V7.25712C8.31456 6.90445 8.03792 6.62818 7.68479 6.62818C7.33749 6.62818 7.05501 6.91028 7.05501 7.25712V7.28941C7.03956 9.81871 6.03046 12.1661 4.21369 13.9144C4.14145 13.9922 4.03783 14.0348 3.93026 14.0348C3.832 14.0348 3.74289 13.9992 3.68548 13.9371C3.61672 13.8683 3.58233 13.773 3.58659 13.6711C3.59085 13.567 3.63454 13.4699 3.70346 13.4118C5.38318 11.7866 6.31247 9.62686 6.32824 7.3228V7.1927C6.37161 6.49162 6.96764 5.93482 7.68479 5.93482C8.39784 5.93482 9.01374 6.51792 9.05774 7.23475L9.05743 7.3217C9.04197 10.0643 8.03556 12.6898 6.22367 14.7297C6.16106 14.8036 6.0598 14.846 5.95066 14.846C5.95081 14.846 5.95066 14.846 5.95066 14.846ZM11.1013 14.2262C11.0485 14.2262 10.999 14.215 10.9543 14.1926C10.8728 14.1568 10.8147 14.0894 10.7834 13.9993C10.748 13.8979 10.7537 13.7872 10.7987 13.7032C11.7814 11.7405 12.2871 9.6004 12.3033 7.33887V7.28941C12.3033 4.75507 10.2315 2.69311 7.68479 2.69311C5.17925 2.69311 3.10003 4.73192 3.05003 7.2379V7.3217C3.05003 8.76307 2.47135 10.1076 1.42062 11.1078C1.34776 11.1862 1.24413 11.2287 1.13657 11.2287C1.03831 11.2287 0.949198 11.1931 0.891788 11.1311C0.823022 11.0622 0.788639 10.967 0.792897 10.865C0.797156 10.7609 0.840844 10.6639 0.909768 10.6058C1.81839 9.73365 2.32341 8.57627 2.33966 7.33981V7.24105C2.37089 4.34287 4.7687 1.98368 7.68479 1.98368C10.6075 1.98368 12.9981 4.34255 13.0138 7.242V7.3217C13.0138 9.64938 12.4725 11.961 11.4483 14.0067C11.3901 14.139 11.2488 14.2262 11.1013 14.2262ZM14.2945 10.9737C14.2753 10.9737 14.256 10.9722 14.2368 10.9688C14.0644 10.9366 13.9311 10.7294 13.9641 10.5428C14.1797 9.49991 14.2895 8.42002 14.2895 7.33776V7.28941C14.2895 3.66132 11.3267 0.709583 7.68479 0.709583C4.06827 0.709583 1.1126 3.64652 1.09619 7.25633V7.33776C1.08105 7.87566 0.946201 8.38883 0.695268 8.85852C0.638489 8.98689 0.497014 9.06849 0.345761 9.06849C0.287405 9.06849 0.231256 9.05588 0.183309 9.03194C0.101453 8.98579 0.0358411 8.89664 0.0106059 8.79127C-0.0124213 8.69503 0.00240443 8.59769 0.0516131 8.52397L0.0571333 8.51562L0.0617071 8.50665C0.25523 8.12012 0.353332 7.72681 0.353332 7.33776V7.24105C0.385033 3.24896 3.67381 0 7.68479 0C11.7027 0 14.9844 3.24865 15 7.24168V7.3217C15 8.47688 14.8871 9.61079 14.6642 10.6921C14.6354 10.846 14.4661 10.9737 14.2945 10.9737C14.2947 10.9737 14.2944 10.9737 14.2945 10.9737Z" fill="#7691B2"/>
</svg>
