<svg width="20" height="20" viewBox="0 0 20 20" fill="none" xmlns="http://www.w3.org/2000/svg">
<circle cx="10" cy="10" r="10" fill="black"/>
<path d="M12.4298 3.64453C12.4584 3.64453 12.4869 3.64453 12.5171 3.64453C12.5871 4.47413 12.2569 5.09401 11.8556 5.5429C11.4619 5.9887 10.9228 6.42106 10.0507 6.35546C9.99256 5.53774 10.3233 4.96384 10.724 4.51597C11.0957 4.09859 11.777 3.72718 12.4298 3.64453Z" fill="white"/>
<path d="M15.0698 12.1602C15.0698 12.1685 15.0698 12.1757 15.0698 12.1835C14.8248 12.8953 14.4752 13.5054 14.0486 14.0715C13.6592 14.5855 13.182 15.2772 12.3299 15.2772C11.5936 15.2772 11.1045 14.8231 10.3499 14.8107C9.55167 14.7983 9.1127 15.1904 8.38287 15.2891C8.29938 15.2891 8.2159 15.2891 8.13403 15.2891C7.5981 15.2147 7.16559 14.8076 6.8505 14.4409C5.92138 13.3571 5.2034 11.9572 5.06982 10.1658C5.06982 9.99015 5.06982 9.81503 5.06982 9.6394C5.12638 8.35729 5.77595 7.31486 6.63936 6.80966C7.09503 6.54105 7.72145 6.31221 8.41896 6.41449C8.71789 6.45892 9.02329 6.55706 9.29098 6.65418C9.54467 6.74768 9.86192 6.91349 10.1625 6.90471C10.3661 6.89903 10.5686 6.79727 10.7738 6.72546C11.3749 6.51729 11.9641 6.27864 12.7408 6.39073C13.6743 6.52607 14.3368 6.92383 14.7461 7.5375C13.9565 8.01946 13.3322 8.74575 13.4389 9.98602C13.5337 11.1126 14.2167 11.7718 15.0698 12.1602Z" fill="white"/>
</svg>
