<svg width="20" height="20" viewBox="0 0 20 20" fill="none" xmlns="http://www.w3.org/2000/svg">
<circle cx="10" cy="10" r="10" fill="white"/>
<g clip-path="url(#clip0_1273_2441)">
<path d="M7.87744 3.46054C6.47862 3.94581 5.27228 4.86685 4.43561 6.08839C3.59895 7.30993 3.17605 8.76758 3.22905 10.2472C3.28204 11.7269 3.80813 13.1505 4.73004 14.3091C5.65195 15.4676 6.92108 16.3 8.35103 16.684C9.51032 16.9831 10.7249 16.9963 11.8904 16.7223C12.9462 16.4851 13.9224 15.9778 14.7232 15.2501C15.5567 14.4695 16.1618 13.4765 16.4732 12.3779C16.8118 11.1831 16.872 9.92672 16.6493 8.70507H10.1393V11.4055H13.9095C13.8341 11.8362 13.6727 12.2473 13.4347 12.6142C13.1968 12.981 12.8873 13.2961 12.5248 13.5405C12.0644 13.8451 11.5454 14.05 11.0012 14.1421C10.4553 14.2436 9.89547 14.2436 9.34962 14.1421C8.79639 14.0277 8.27304 13.7994 7.81291 13.4716C7.07369 12.9484 6.51865 12.205 6.22697 11.3476C5.93036 10.4741 5.93036 9.52714 6.22697 8.65367C6.43459 8.0414 6.77782 7.48394 7.23103 7.02289C7.74968 6.48558 8.4063 6.10151 9.12886 5.91281C9.85142 5.72412 10.612 5.73809 11.3271 5.9532C11.8858 6.12469 12.3966 6.42432 12.819 6.8282C13.2441 6.40528 13.6685 5.98127 14.0921 5.55617C14.3109 5.32757 14.5493 5.10992 14.7648 4.87586C14.1201 4.27591 13.3633 3.80907 12.5379 3.50211C11.0348 2.95631 9.39007 2.94165 7.87744 3.46054Z" fill="white"/>
<path d="M7.87789 3.46065C9.3904 2.9414 11.0351 2.95568 12.5384 3.50112C13.3639 3.81017 14.1203 4.27925 14.7641 4.88143C14.5454 5.11549 14.3146 5.33424 14.0915 5.56174C13.6671 5.98539 13.2431 6.40757 12.8195 6.8283C12.3971 6.42442 11.8862 6.12479 11.3276 5.9533C10.6127 5.73744 9.85213 5.72266 9.12938 5.91058C8.40663 6.09851 7.74961 6.48187 7.23039 7.01862C6.77718 7.47967 6.43395 8.03713 6.22633 8.6494L3.95898 6.89393C4.77056 5.28454 6.17574 4.05349 7.87789 3.46065Z" fill="#E33629"/>
<path d="M3.35633 8.6328C3.47819 8.02882 3.68052 7.44392 3.95789 6.89374L6.22523 8.65358C5.92862 9.52706 5.92862 10.474 6.22523 11.3475C5.46981 11.9308 4.71403 12.5171 3.95789 13.1062C3.26352 11.7241 3.05175 10.1493 3.35633 8.6328Z" fill="#F8BD00"/>
<path d="M10.1392 8.70398H16.6492C16.8718 9.92562 16.8116 11.1821 16.4731 12.3768C16.1616 13.4754 15.5566 14.4684 14.7231 15.249C13.9913 14.678 13.2563 14.1115 12.5246 13.5405C12.8874 13.2958 13.197 12.9804 13.435 12.6132C13.6729 12.2459 13.8342 11.8344 13.9093 11.4034H10.1392C10.1381 10.5043 10.1392 9.60414 10.1392 8.70398Z" fill="#587DBD"/>
<path d="M3.875 13.2172C4.63115 12.6339 5.38693 12.0476 6.14234 11.4584C6.4346 12.3162 6.99044 13.0596 7.73047 13.5825C8.19204 13.9087 8.71652 14.1352 9.27047 14.2475C9.81631 14.349 10.3762 14.349 10.922 14.2475C11.4663 14.1554 11.9852 13.9505 12.4456 13.6459C13.1773 14.2169 13.9123 14.7834 14.6441 15.3544C13.8433 16.0825 12.8672 16.5902 11.8113 16.8277C10.6458 17.1016 9.43117 17.0885 8.27188 16.7894C7.35499 16.5446 6.49855 16.113 5.75625 15.5217C4.97057 14.8979 4.32886 14.1118 3.875 13.2172Z" fill="#319F43"/>
</g>
<defs>
<clipPath id="clip0_1273_2441">
<rect width="14" height="14" fill="white" transform="translate(3 3)"/>
</clipPath>
</defs>
</svg>
