<svg preserveAspectRatio="none" width="100%" height="100%" overflow="visible" style="display: block;" viewBox="0 0 20 20" fill="none" xmlns="http://www.w3.org/2000/svg">
<g id="Group 1171276493">
<circle id="Ellipse 53" cx="10" cy="10" r="10" fill="var(--fill-0, #5865F2)"/>
<path id="Discord-Symbol-Blurple" d="M11.6893 5C11.572 5.206 11.4667 5.4191 11.371 5.63694C10.4616 5.50198 9.53543 5.50198 8.62365 5.63694C8.53031 5.4191 8.42262 5.206 8.30536 5C7.451 5.14444 6.61818 5.39779 5.82845 5.75532C4.26332 8.04973 3.83973 10.2849 4.05033 12.4893C4.96691 13.1594 5.99357 13.6709 7.08724 13.9976C7.33373 13.6709 7.55152 13.3228 7.73818 12.9605C7.38399 12.8303 7.04177 12.6669 6.71391 12.4775C6.80006 12.4159 6.88382 12.352 6.96519 12.2905C8.88689 13.1855 11.1125 13.1855 13.0366 12.2905C13.118 12.3568 13.2017 12.4207 13.2879 12.4775C12.96 12.6693 12.6178 12.8303 12.2612 12.9629C12.4479 13.3252 12.6657 13.6732 12.9122 14C14.0058 13.6732 15.0325 13.1642 15.9491 12.4941C16.1979 9.93686 15.5231 7.7206 14.1661 5.7577C13.3788 5.40016 12.546 5.1468 11.6917 5.00473L11.6893 5ZM8.00621 11.1326C7.41511 11.1326 6.92451 10.6022 6.92451 9.94633C6.92451 9.29046 7.39596 8.7577 8.00382 8.7577C8.61169 8.7577 9.09509 9.29282 9.08552 9.94633C9.07595 10.5998 8.60929 11.1326 8.00621 11.1326ZM11.9932 11.1326C11.3997 11.1326 10.9139 10.6022 10.9139 9.94633C10.9139 9.29046 11.3853 8.7577 11.9932 8.7577C12.6011 8.7577 13.0821 9.29282 13.0725 9.94633C13.0629 10.5998 12.5963 11.1326 11.9932 11.1326Z" fill="var(--fill-0, white)"/>
</g>
</svg>
