<svg width="18" height="12" viewBox="0 0 18 12" fill="none" xmlns="http://www.w3.org/2000/svg">
<path d="M2.218 11.5H15.782C16.035 11.5 16.235 11.2875 16.2 11.0375L15.112 3.625C15.0839 3.43387 14.9684 3.26669 14.7994 3.17416C14.6305 3.08162 14.4283 3.07556 14.254 3.1575L11.419 4.49L9.394 1.1475C9.31332 1.01463 9.17445 0.925907 9.01844 0.906008C8.86244 0.886109 8.70485 0.937327 8.591 1.045L5.489 4.005L3.84 2.3175C3.7237 2.19865 3.56264 2.13374 3.39599 2.1386C3.22933 2.14346 3.07237 2.21763 2.96319 2.34307C2.85401 2.46851 2.80226 2.63417 2.82108 2.79984C2.83989 2.9655 2.92757 3.1158 3.063 3.2175L4.551 4.3375L1.748 3.2125C1.57394 3.14227 1.37625 3.15811 1.21553 3.25472C1.05482 3.35132 0.949692 3.51762 0.931002 3.7025L0.25 11.075C0.227002 11.325 0.425998 11.5 0.681998 11.5H2.218Z" fill="#FFC130"/>
</svg>
