<svg width="48" height="48" viewBox="0 0 48 48" fill="none" xmlns="http://www.w3.org/2000/svg">
  <rect width="48" height="48" rx="8" fill="white"/>
  <path d="M39.04 24.56C39.04 23.52 38.9467 22.52 38.7733 21.56H24V27.64H32.44C32.0733 29.6 30.9733 31.2667 29.32 32.3867V36.3333H34.4C37.3733 33.5867 39.04 29.54 39.04 24.56Z" fill="#4285F4"/>
  <path d="M24 39.8933C28.2333 39.8933 31.78 38.4933 34.4 36.3333L29.32 32.3867C27.92 33.3267 26.12 33.8933 24 33.8933C19.9133 33.8933 16.4467 31.1333 15.22 27.4267H9.98666V31.5C12.5933 36.68 17.9533 39.8933 24 39.8933Z" fill="#34A853"/>
  <path d="M15.22 27.4267C14.9 26.4867 14.7133 25.48 14.7133 24.44C14.7133 23.4 14.9 22.3933 15.22 21.4533V17.38H9.98666C8.90666 19.5267 8.29333 21.9467 8.29333 24.44C8.29333 26.9333 8.90666 29.3533 9.98666 31.5L15.22 27.4267Z" fill="#FBBC05"/>
  <path d="M24 14.9867C26.3133 14.9867 28.3933 15.7867 30.0333 17.3533L34.5133 12.8733C31.7733 10.3267 28.2267 8.77333 24 8.77333C17.9533 8.77333 12.5933 11.9867 9.98666 17.38L15.22 21.4533C16.4467 17.7467 19.9133 14.9867 24 14.9867Z" fill="#EA4335"/>
</svg>

