<svg width="18" height="22" viewBox="0 0 18 22" fill="none" xmlns="http://www.w3.org/2000/svg">
<path d="M1.1068 15.5335C1.1068 17.5669 1.83944 19.4812 3.19432 20.8103L8.51347 8.21338C4.41873 8.21338 1.1068 11.4866 1.1068 15.5335Z" fill="#00CC99"/>
<path d="M8.50963 8.2041L13.8388 20.7812C15.1736 19.4521 15.9163 17.5377 15.9163 15.5242C15.9163 11.4872 12.6044 8.21402 8.50963 8.2041Z" fill="#FFBA08"/>
<path d="M10.2084 17.4285C10.2084 16.4961 9.44563 15.7522 8.51227 15.7522C7.56887 15.7522 6.81616 16.506 6.81616 17.4285C6.81616 18.0038 7.10721 18.5196 7.55884 18.8171L7.00685 21.9217H10.0077L9.46571 18.8171C9.91733 18.5096 10.2084 18.0038 10.2084 17.4285Z" fill="#3C127C"/>
<path d="M8.6612 7.22092C8.61102 7.211 8.56084 7.211 8.51066 7.211C8.46048 7.211 8.4103 7.211 8.36012 7.22092C6.64393 7.25068 5.04818 7.78629 3.72341 8.68891V6.5266C3.71338 3.90803 5.87115 1.78539 8.51066 1.78539C11.1502 1.78539 13.3079 3.90803 13.3079 6.5266C13.3079 7.02254 13.7094 7.4193 14.2112 7.4193C14.713 7.4193 15.1144 7.02254 15.1144 6.5266C15.1144 2.92606 12.1538 0 8.51066 0C4.86753 0 1.90687 2.92606 1.90687 6.5266V10.3255C0.712567 11.7737 0 13.6186 0 15.6321C0 17.9729 0.883181 20.1749 2.41871 21.6826C2.62947 21.8909 2.91048 22 3.1915 22C3.26175 22 3.332 21.9901 3.41229 21.9802C3.77359 21.9107 4.07468 21.6628 4.21518 21.3255L8.52069 11.1289L12.8362 21.3057C12.9767 21.6429 13.2778 21.881 13.6391 21.9504C14.0004 22.0198 14.3718 21.9107 14.6327 21.6528C16.1582 20.1452 17.0313 17.9432 17.0313 15.6222C17.0213 11.0397 13.2879 7.30027 8.6612 7.22092ZM2.93056 18.697C2.46889 17.7944 2.20795 16.7331 2.20795 15.6321C2.20795 12.8052 4.12486 10.4049 6.74429 9.65104L2.93056 18.697ZM14.1008 18.6772L10.277 9.65104C12.8965 10.4049 14.8134 12.8052 14.8134 15.6321C14.8134 16.7232 14.5625 17.7746 14.1008 18.6772Z" fill="#3C127C"/>
</svg>
