<svg preserveAspectRatio="none" width="100%" height="100%" overflow="visible" style="display: block;" viewBox="0 0 10.0002 12" fill="none" xmlns="http://www.w3.org/2000/svg">
<g id="Group">
<path id="Vector" d="M7.68315 0.432242L2.3166 0.432242L0.411621 1.82918L0.411621 5.6642C0.411621 6.9822 1.6464 9.5577 4.99988 11.506C8.35335 9.5577 9.58813 6.9822 9.58813 5.6642V1.82918L7.68315 0.432242Z" fill="var(--fill-0, white)"/>
<path id="Vector_2" d="M9.58874 1.82918V5.6642C9.58874 6.9822 8.35396 9.5577 5.00049 11.506V0.432242L7.68376 0.432242L9.58874 1.82918Z" fill="var(--fill-0, #C6E1EC)"/>
<path id="Vector_3" d="M7.81252 0L2.187 0L0 1.60378L0 5.66409C0 6.50703 0.406565 7.57814 1.11517 8.60258C1.97796 9.85 3.25224 10.9848 4.80059 11.8842L4.99976 12L5.19893 11.8842C6.74727 10.9848 8.02156 9.85 8.88434 8.60258C9.59295 7.57814 9.99952 6.50703 9.99952 5.66409V1.60378L7.81252 0ZM9.17651 5.66409C9.17651 6.81385 8.05969 9.16147 4.99976 11.0098C1.93982 9.16147 0.823005 6.81385 0.823005 5.66409V2.05435L2.44597 0.864263L7.55354 0.864263L9.17651 2.05435V5.66409Z" fill="var(--fill-0, #EFF5FA)"/>
<path id="Vector_4" d="M10.0002 1.60378V5.66409C10.0002 6.50703 9.59364 7.57814 8.88503 8.60258C8.02225 9.85 6.74796 10.9848 5.19961 11.8842L5.00044 12V11.0098C8.06038 9.16147 9.1772 6.81385 9.1772 5.66409V2.05435L7.55423 0.864263L5.00044 0.864263V0L7.8132 0L10.0002 1.60378Z" fill="var(--fill-0, #C6E1EC)"/>
</g>
</svg>
