<svg preserveAspectRatio="none" width="100%" height="100%" overflow="visible" style="display: block;" viewBox="0 0 20 20" fill="none" xmlns="http://www.w3.org/2000/svg">
<g id="Group 1171276490">
<circle id="Ellipse 52" cx="10" cy="10" r="10" fill="var(--fill-0, #6E16DF)"/>
<g id="Group 1171276491">
<path id="Vector" d="M10.1741 5.64453H11.1754C11.3001 5.68858 11.6187 5.73205 11.8065 5.78893C12.5669 6.0238 13.2342 6.49217 13.7133 7.12755C13.9929 7.4941 14.4407 8.2683 14.3889 8.75391C14.343 9.01692 14.1962 9.27389 14.1108 9.5224C13.8949 10.1484 13.3236 10.6788 12.6837 10.8486C12.3873 10.9273 11.9579 10.912 11.6442 10.9152L10.4077 10.9266L7.27813 10.9712C7.06229 10.9755 6.51717 10.9408 6.37842 11.0464C6.33485 11.1249 6.35606 11.1974 6.45404 11.2059C6.84398 11.2395 7.24608 11.233 7.63848 11.2378L10.9097 11.2645L11.8181 11.2747C12.1944 11.2786 12.5194 11.2381 12.8357 11.493C13.2168 11.7909 13.1813 12.3257 13.0461 12.7401C13.0027 12.8729 12.9339 12.9177 12.7978 12.921C12.36 12.9316 11.9207 12.9267 11.4825 12.9265L8.92041 12.9261L4.3924 12.9258C3.69883 12.9256 3.00444 12.9269 2.31169 12.9282C2.02598 12.919 2.0319 12.9116 2.00987 12.655C1.97206 12.2129 2.04357 11.8431 2.2124 11.4285C2.56551 10.561 3.4289 10.0506 4.34834 10.0148C4.12642 8.78708 4.94624 7.77999 6.21337 7.88005C6.55645 7.90715 6.77345 8.02396 7.05851 8.20239C7.10076 8.09658 7.13429 7.98612 7.17851 7.88092C7.62056 6.82865 8.4994 6.08287 9.59573 5.77434C9.78905 5.71995 9.98008 5.6928 10.1741 5.64453Z" fill="var(--fill-0, white)"/>
<path id="Vector_2" d="M18.1235 12.1765C18.0645 12.3422 18.0905 12.7641 17.9368 12.8997C17.9166 12.9176 17.8013 12.9277 17.7681 12.9276C16.3629 12.9233 14.957 12.9202 13.5518 12.9281C13.4699 12.9286 13.404 12.9309 13.3708 12.8525C13.3739 12.6563 13.6085 12.2271 13.7279 12.0679C13.8898 11.8536 14.095 11.6757 14.33 11.5456C14.887 11.2332 15.3502 11.2674 15.9698 11.2479C16.1298 11.2429 16.6414 11.2818 16.5891 11.0385C16.5633 11.0081 16.5403 10.9909 16.4992 10.9833C16.0481 10.8998 15.3022 10.9882 14.8937 10.8147C14.6889 10.729 14.527 10.5646 14.4446 10.3584C14.3024 10.0057 14.4241 9.68395 14.5209 9.33838C14.551 9.24764 14.6452 8.82003 14.7353 8.80381C15.0055 8.75809 15.2893 8.80205 15.5562 8.8519C16.7367 9.07229 17.6984 10.0008 18.0053 11.1552C18.0616 11.3669 18.0711 11.575 18.1235 11.782V12.1765Z" fill="var(--fill-0, #C6E1EC)"/>
</g>
</g>
</svg>
