<svg preserveAspectRatio="none" width="100%" height="100%" overflow="visible" style="display: block;" viewBox="0 0 40 20" fill="none" xmlns="http://www.w3.org/2000/svg">
<g id="Infinity">
<path id="Vector" d="M29.9386 0.000217163C28.4835 -0.00935624 27.0439 0.297704 25.7203 0.899945C24.3967 1.50219 23.2211 2.38508 22.2755 3.48696L20.7917 5.18979L24.1036 9.00088L26.057 6.75539C26.5364 6.19786 27.132 5.75111 27.8023 5.44626C28.4727 5.14141 29.2017 4.98578 29.9386 4.99019C30.5997 4.97975 31.2562 5.10046 31.87 5.34529C32.4838 5.59012 33.0426 5.95417 33.5138 6.41625C33.9851 6.87833 34.3593 7.4292 34.6147 8.03678C34.8701 8.64435 35.0017 9.29649 35.0017 9.95521C35.0017 10.6139 34.8701 11.2661 34.6147 11.8736C34.3593 12.4812 33.9851 13.0321 33.5138 13.4942C33.0426 13.9563 32.4838 14.3203 31.87 14.5651C31.2562 14.81 30.5997 14.9307 29.9386 14.9202C29.2041 14.9251 28.4773 14.7702 27.8091 14.4664C27.1408 14.1626 26.5472 13.7172 26.0695 13.1613C18.8158 4.81679 22.2624 8.79504 17.6551 3.48072C16.7083 2.38077 15.5323 1.49959 14.2088 0.898508C12.8854 0.297427 11.4465 -0.00911387 9.99205 0.000217163C7.34199 0.000217163 4.80047 1.04904 2.9266 2.91597C1.05273 4.78289 0 7.31498 0 9.95521C0 12.5954 1.05273 15.1275 2.9266 16.9945C4.80047 18.8614 7.34199 19.9102 9.99205 19.9102C11.4471 19.9198 12.8867 19.6127 14.2103 19.0105C15.5339 18.4082 16.7095 17.5253 17.6551 16.4235L19.1389 14.7206L15.827 10.9095L13.8737 13.155C13.3942 13.7126 12.7986 14.1593 12.1283 14.4642C11.4579 14.769 10.7289 14.9246 9.99205 14.9202C9.33096 14.9307 8.67439 14.81 8.06058 14.5651C7.44677 14.3203 6.88799 13.9563 6.41678 13.4942C5.94557 13.0321 5.57135 12.4812 5.31591 11.8736C5.06047 11.2661 4.92892 10.6139 4.92892 9.95521C4.92892 9.29649 5.06047 8.64435 5.31591 8.03678C5.57135 7.4292 5.94557 6.87833 6.41678 6.41625C6.88799 5.95417 7.44677 5.59012 8.06058 5.34529C8.67439 5.10046 9.33096 4.97975 9.99205 4.99019C10.7266 4.98535 11.4533 5.14023 12.1215 5.44403C12.7898 5.74783 13.3835 6.19323 13.8611 6.74915C21.1148 15.0936 17.6683 11.1154 22.2755 16.4297C23.3612 17.7182 24.7557 18.713 26.3298 19.3219C27.9039 19.9309 29.6068 20.1343 31.2808 19.9134C32.9547 19.6925 34.5457 19.0544 35.9064 18.0582C37.2672 17.062 38.3536 15.7399 39.0652 14.2142C39.7768 12.6885 40.0906 11.0087 39.9774 9.33009C39.8643 7.65153 39.3279 6.02853 38.418 4.61135C37.508 3.19417 36.2539 2.02862 34.7717 1.2226C33.2895 0.416579 31.6272 -0.0038555 29.9386 0.000217163Z" fill="url(#paint0_linear_0_46)"/>
</g>
<defs>
<linearGradient id="paint0_linear_0_46" x1="9.46088e-09" y1="10.1901" x2="40" y2="9.80708" gradientUnits="userSpaceOnUse">
<stop stop-color="#3C0C79"/>
<stop offset="1" stop-color="#6E16DF"/>
</linearGradient>
</defs>
</svg>
