<svg preserveAspectRatio="none" width="100%" height="100%" overflow="visible" style="display: block;" viewBox="0 0 10 11.6445" fill="none" xmlns="http://www.w3.org/2000/svg">
<g id="Group">
<path id="Vector" d="M7.35996 0C7.38851 0 7.41706 0 7.44722 0C7.51724 0.829601 7.18707 1.44948 6.7858 1.89837C6.39207 2.34417 5.85291 2.77653 4.98088 2.71093C4.92271 1.89321 5.25342 1.3193 5.65416 0.871443C6.0258 0.45406 6.70716 0.0826502 7.35996 0Z" fill="var(--fill-0, white)"/>
<path id="Vector_2" d="M10 8.51568C10 8.52394 10 8.53117 10 8.53892C9.75493 9.25075 9.40536 9.86081 8.97878 10.427C8.58936 10.9409 8.11214 11.6326 7.26005 11.6326C6.52375 11.6326 6.03469 11.1786 5.28008 11.1662C4.48185 11.1538 4.04287 11.5458 3.31305 11.6445C3.22956 11.6445 3.14607 11.6445 3.0642 11.6445C2.52828 11.5701 2.09577 11.1631 1.78067 10.7963C0.851556 9.71255 0.133578 8.31267 0 6.52122C0 6.34559 0 6.17048 0 5.99484C0.056555 4.71273 0.706129 3.67031 1.56954 3.16511C2.02521 2.89649 2.65162 2.66766 3.34913 2.76994C3.64807 2.81436 3.95346 2.91251 4.22116 3.00962C4.47485 3.10312 4.79209 3.26894 5.09264 3.26015C5.29624 3.25447 5.49876 3.15271 5.70398 3.08091C6.30507 2.87273 6.89432 2.63408 7.67101 2.74617C8.60444 2.88151 9.26694 3.27927 9.67629 3.89295C8.88667 4.3749 8.26242 5.10119 8.36906 6.34146C8.46386 7.46808 9.14683 8.12722 10 8.51568Z" fill="var(--fill-0, white)"/>
</g>
</svg>
