<svg width="48" height="48" viewBox="0 0 48 48" fill="none" xmlns="http://www.w3.org/2000/svg">
<g filter="url(#filter0_d_1273_1983)">
<rect x="3.27734" width="40.9722" height="40.9722" rx="6.55556" fill="#9516DF"/>
<rect x="3.27734" width="40.9722" height="40.9722" rx="6.55556" fill="url(#paint0_linear_1273_1983)"/>
<path d="M17.8038 10.5276L17.5475 10.784C14.7585 13.5729 14.4406 17.9867 16.8011 21.1464L22.9164 29.1143C23.2898 29.6008 24.0238 29.5987 24.3945 29.11L30.45 21.1247C32.8226 17.9529 32.5047 13.5197 29.7039 10.7189L29.5126 10.5276C26.2793 7.29434 21.0371 7.29434 17.8038 10.5276Z" stroke="white" stroke-width="1.52977"/>
<path d="M19.9375 12.9417V19.7407M23.337 16.0797V19.7407" stroke="white" stroke-width="1.52977" stroke-linecap="round"/>
<path d="M23.3379 13.3832C23.3379 13.1394 23.5108 12.9417 23.7242 12.9417H25.7282C26.7549 12.9417 27.5873 13.893 27.5873 15.0664C27.5873 16.2398 26.7549 17.1911 25.7282 17.1911H23.3379V13.3832Z" stroke="white" stroke-width="1.52977"/>
<path d="M17.1006 26.3627H14.6297C14.1517 26.3627 13.7163 26.6376 13.5107 27.0692L11.5926 31.0973C11.201 31.9197 11.8007 32.8695 12.7116 32.8695H34.8131C35.7241 32.8695 36.3238 31.9197 35.9321 31.0973L34.014 27.0692C33.8085 26.6376 33.373 26.3627 32.895 26.3627H30.2692" stroke="white" stroke-width="1.52977" stroke-linecap="round"/>
</g>
<defs>
<filter id="filter0_d_1273_1983" x="-0.00043416" y="0" width="47.5282" height="47.5278" filterUnits="userSpaceOnUse" color-interpolation-filters="sRGB">
<feFlood flood-opacity="0" result="BackgroundImageFix"/>
<feColorMatrix in="SourceAlpha" type="matrix" values="0 0 0 0 0 0 0 0 0 0 0 0 0 0 0 0 0 0 127 0" result="hardAlpha"/>
<feOffset dy="3.27778"/>
<feGaussianBlur stdDeviation="1.63889"/>
<feComposite in2="hardAlpha" operator="out"/>
<feColorMatrix type="matrix" values="0 0 0 0 0 0 0 0 0 0 0 0 0 0 0 0 0 0 0.25 0"/>
<feBlend mode="normal" in2="BackgroundImageFix" result="effect1_dropShadow_1273_1983"/>
<feBlend mode="normal" in="SourceGraphic" in2="effect1_dropShadow_1273_1983" result="shape"/>
</filter>
<linearGradient id="paint0_linear_1273_1983" x1="43.1177" y1="1.72302e-06" x2="4.40926" y2="40.9722" gradientUnits="userSpaceOnUse">
<stop stop-color="#9516DF"/>
<stop offset="1" stop-color="#510C79"/>
</linearGradient>
</defs>
</svg>
