<svg width="48" height="48" viewBox="0 0 48 48" fill="none" xmlns="http://www.w3.org/2000/svg">
<g filter="url(#filter0_d_1273_1966)">
<rect x="3.27734" width="40.9722" height="40.9722" rx="6.55556" fill="#9516DF"/>
<rect x="3.27734" width="40.9722" height="40.9722" rx="6.55556" fill="url(#paint0_linear_1273_1966)"/>
<path d="M23.7591 27.6913C26.5367 27.6913 28.2658 24.9105 29.0494 23.253C29.3401 22.6385 29.4875 21.9777 29.4875 21.2892V16.387C29.4875 16.2609 29.4362 16.1398 29.3442 16.053C29.2528 15.9656 29.1294 15.9222 29.0042 15.9254C25.9614 16.0668 24.1574 13.518 24.1403 13.4926C24.0539 13.3674 23.9116 13.2925 23.7596 13.2921H23.7587C23.6071 13.2921 23.4648 13.3669 23.3784 13.4917C23.3608 13.5176 21.5592 16.0627 18.5146 15.925C18.3898 15.9227 18.266 15.9652 18.1745 16.0525C18.083 16.1394 18.0312 16.2604 18.0312 16.3866V21.2887C18.0312 21.9772 18.1787 22.638 18.4693 23.2526C19.253 24.91 20.9821 27.6913 23.7591 27.6913ZM18.9554 16.8524C21.4109 16.7784 23.0577 15.2808 23.7591 14.4902C24.461 15.2808 26.1079 16.7789 28.5633 16.8524V21.2892C28.5633 21.84 28.4455 22.3677 28.2135 22.8584C27.5237 24.3186 26.0275 26.7676 23.7587 26.7676C21.4899 26.7676 19.9946 24.3186 19.3043 22.8584C19.0723 22.3682 18.9545 21.8405 18.9545 21.2897V16.8528L18.9554 16.8524Z" fill="white"/>
<path d="M22.2393 20.9408V23.5894C22.2393 23.8445 22.4458 24.0515 22.7014 24.0515H24.8181C25.0737 24.0515 25.2802 23.8445 25.2802 23.5894V20.9408C25.7691 20.5073 26.0546 19.8826 26.0546 19.2265C26.0546 17.9613 25.0247 16.9318 23.7595 16.9318C22.4943 16.9318 21.4648 17.9613 21.4648 19.2265C21.4648 19.8826 21.7504 20.5073 22.2393 20.9408ZM23.7595 17.856C24.5155 17.856 25.1305 18.471 25.1305 19.2265C25.1305 19.6668 24.9138 20.0836 24.5506 20.3419C24.4286 20.4288 24.356 20.5693 24.356 20.7185V23.1273H23.1634V20.7185C23.1634 20.5688 23.0909 20.4288 22.9689 20.3419C22.6057 20.0841 22.389 19.6673 22.389 19.2265C22.389 18.4705 23.0036 17.856 23.7595 17.856Z" fill="white"/>
<path d="M11.4731 26.1567C11.4731 27.335 12.4319 28.2938 13.6102 28.2938C14.1693 28.2938 14.6748 28.0734 15.0561 27.7204L21.7307 31.5699C21.666 31.7737 21.6217 31.9862 21.6217 32.2113C21.6217 33.3896 22.5805 34.3484 23.7588 34.3484C24.9371 34.3484 25.8959 33.3896 25.8959 32.2113C25.8959 31.9881 25.852 31.7774 25.7882 31.575L32.4731 27.7204C32.8543 28.0729 33.3598 28.2938 33.9189 28.2938C35.0972 28.2938 36.056 27.335 36.056 26.1567C36.056 25.1383 35.3384 24.2867 34.3833 24.0737V16.5622C35.3384 16.3491 36.056 15.4975 36.056 14.4791C36.056 13.3008 35.0972 12.342 33.9189 12.342C33.2517 12.342 32.662 12.6558 32.2697 13.1368L25.7942 9.39629C25.8575 9.19437 25.9014 8.98366 25.9014 8.76094C25.9014 7.58265 24.9426 6.62384 23.7643 6.62384C22.586 6.62384 21.6272 7.58265 21.6272 8.76094C21.6272 8.98366 21.6711 9.1939 21.7344 9.39629L15.2589 13.1368C14.8666 12.6558 14.277 12.342 13.6098 12.342C12.4315 12.342 11.4727 13.3008 11.4727 14.4791C11.4727 15.4975 12.1903 16.3491 13.1454 16.5622V24.0737C12.1903 24.2867 11.4727 25.1383 11.4727 26.1567H11.4731ZM13.6102 27.3696C12.9416 27.3696 12.3973 26.8253 12.3973 26.1567C12.3973 25.4881 12.9384 24.9474 13.6042 24.9442C13.6056 24.9442 13.6065 24.9451 13.6079 24.9451C13.6098 24.9451 13.6111 24.9442 13.613 24.9442C14.2802 24.9461 14.8232 25.489 14.8232 26.1567C14.8232 26.8244 14.2788 27.3696 13.6102 27.3696ZM23.7588 33.4242C23.0902 33.4242 22.5458 32.8799 22.5458 32.2113C22.5458 31.5426 23.0902 30.9983 23.7588 30.9983C24.4274 30.9983 24.9717 31.5426 24.9717 32.2113C24.9717 32.8799 24.4274 33.4242 23.7588 33.4242ZM35.1318 26.1567C35.1318 26.8253 34.5875 27.3696 33.9189 27.3696C33.2503 27.3696 32.7059 26.8253 32.7059 26.1567C32.7059 25.4881 33.2484 24.9456 33.9161 24.9442C33.918 24.9442 33.9194 24.9451 33.9212 24.9451C33.9226 24.9451 33.9235 24.9442 33.9249 24.9442C34.5907 24.9474 35.1318 25.4899 35.1318 26.1567ZM33.9189 13.2662C34.5875 13.2662 35.1318 13.8105 35.1318 14.4791C35.1318 15.1477 34.5875 15.6921 33.9189 15.6921C33.2503 15.6921 32.7059 15.1477 32.7059 14.4791C32.7059 14.3045 32.7448 14.139 32.8118 13.9889C32.8127 13.9875 32.8141 13.9865 32.815 13.9847C32.8159 13.9833 32.8159 13.9815 32.8164 13.9801C33.0072 13.5601 33.4286 13.2662 33.9189 13.2662ZM23.7643 7.54799C24.4329 7.54799 24.9773 8.09232 24.9773 8.76094C24.9773 9.42956 24.4329 9.97389 23.7643 9.97389C23.0957 9.97389 22.5514 9.42956 22.5514 8.76094C22.5514 8.09232 23.0957 7.54799 23.7643 7.54799ZM22.1933 10.198C22.5842 10.625 23.141 10.898 23.7643 10.898C24.3877 10.898 24.9445 10.625 25.3354 10.198L31.852 13.9625C31.8104 14.1289 31.7818 14.3003 31.7818 14.4791C31.7818 15.4994 32.5017 16.3519 33.4591 16.5635V24.0723C32.5017 24.2834 31.7818 25.1364 31.7818 26.1567C31.7818 26.4413 31.84 26.7116 31.9412 26.9602L25.3284 30.7733C24.9375 30.3468 24.3812 30.0742 23.7583 30.0742C23.1354 30.0742 22.5823 30.3449 22.1919 30.7691L15.5874 26.9602C15.6886 26.7116 15.7469 26.4413 15.7469 26.1567C15.7469 25.1364 15.0269 24.2839 14.0695 24.0723V16.5635C15.0269 16.3524 15.7469 15.4994 15.7469 14.4791C15.7469 14.2998 15.7182 14.1289 15.6766 13.9625L22.1933 10.198ZM12.3973 14.4791C12.3973 13.8105 12.9416 13.2662 13.6102 13.2662C14.1005 13.2662 14.5219 13.5601 14.7127 13.9801C14.7137 13.9815 14.7137 13.9833 14.7141 13.9847C14.715 13.9861 14.7164 13.9875 14.7173 13.9889C14.7844 14.139 14.8227 14.3045 14.8227 14.4791C14.8227 15.1477 14.2784 15.6921 13.6098 15.6921C12.9411 15.6921 12.3968 15.1477 12.3968 14.4791H12.3973Z" fill="white"/>
</g>
<defs>
<filter id="filter0_d_1273_1966" x="-0.00043416" y="0" width="47.5282" height="47.5278" filterUnits="userSpaceOnUse" color-interpolation-filters="sRGB">
<feFlood flood-opacity="0" result="BackgroundImageFix"/>
<feColorMatrix in="SourceAlpha" type="matrix" values="0 0 0 0 0 0 0 0 0 0 0 0 0 0 0 0 0 0 127 0" result="hardAlpha"/>
<feOffset dy="3.27778"/>
<feGaussianBlur stdDeviation="1.63889"/>
<feComposite in2="hardAlpha" operator="out"/>
<feColorMatrix type="matrix" values="0 0 0 0 0 0 0 0 0 0 0 0 0 0 0 0 0 0 0.25 0"/>
<feBlend mode="normal" in2="BackgroundImageFix" result="effect1_dropShadow_1273_1966"/>
<feBlend mode="normal" in="SourceGraphic" in2="effect1_dropShadow_1273_1966" result="shape"/>
</filter>
<linearGradient id="paint0_linear_1273_1966" x1="43.1177" y1="1.72302e-06" x2="4.40926" y2="40.9722" gradientUnits="userSpaceOnUse">
<stop stop-color="#9516DF"/>
<stop offset="1" stop-color="#510C79"/>
</linearGradient>
</defs>
</svg>
