<svg width="48" height="48" viewBox="0 0 48 48" fill="none" xmlns="http://www.w3.org/2000/svg">
<g filter="url(#filter0_d_1273_1975)">
<rect x="3.27734" width="40.9722" height="40.9722" rx="6.55556" fill="url(#paint0_linear_1273_1975)"/>
<path d="M17.8787 31.2409C18.9131 31.2409 19.9055 30.8317 20.6393 30.1027L26.214 24.5279C26.8834 23.8497 27.2806 22.9494 27.3301 21.9977C27.3797 21.0461 27.0782 20.1094 26.4829 19.3654C26.4482 19.3039 26.4027 19.2492 26.3485 19.204L26.1871 19.0338C26.0157 18.8869 25.7951 18.8102 25.5696 18.8189C25.344 18.8276 25.13 18.9211 24.9704 19.0807C24.8108 19.2404 24.7173 19.4543 24.7086 19.6799C24.6999 19.9055 24.7766 20.126 24.9234 20.2975C25.3136 20.6889 25.5328 21.2191 25.5328 21.7718C25.5328 22.3246 25.3136 22.8548 24.9234 23.2462L19.3666 28.83C19.1716 29.0261 18.9398 29.1819 18.6845 29.2881C18.4291 29.3944 18.1553 29.4491 17.8787 29.4491C17.6022 29.4491 17.3284 29.3944 17.073 29.2881C16.8177 29.1819 16.5859 29.0261 16.3909 28.83L15.414 27.853C15.2178 27.6581 15.0621 27.4263 14.9559 27.171C14.8496 26.9156 14.7949 26.6418 14.7949 26.3652C14.7949 26.0887 14.8496 25.8148 14.9559 25.5595C15.0621 25.3041 15.2178 25.0723 15.414 24.8774L17.8608 22.4216C17.9438 22.3381 18.0095 22.239 18.0542 22.13C18.0989 22.0211 18.1217 21.9044 18.1212 21.7866C18.1208 21.6688 18.0972 21.5523 18.0518 21.4437C18.0063 21.335 17.9399 21.2364 17.8563 21.1534C17.7728 21.0704 17.6737 21.0047 17.5647 20.9601C17.4558 20.9154 17.3391 20.8926 17.2213 20.893C17.1035 20.8934 16.987 20.917 16.8784 20.9625C16.7697 21.0079 16.6711 21.0743 16.5881 21.1579L14.1413 23.6047C13.4128 24.337 13.0039 25.3278 13.0039 26.3607C13.0039 27.3936 13.4128 28.3845 14.1413 29.1168L15.1272 30.1027C15.8577 30.8312 16.8471 31.2405 17.8787 31.2409Z" fill="#EBE8EB"/>
<path d="M32.3898 10.8688C31.6576 10.1403 30.6667 9.73135 29.6338 9.73135C28.6009 9.73135 27.61 10.1403 26.8778 10.8688L21.303 16.4435C20.6336 17.1217 20.2365 18.0221 20.1869 18.9737C20.1373 19.9253 20.4388 20.862 21.0341 21.606C21.0688 21.6675 21.1143 21.7222 21.1686 21.7674L21.3299 21.9377C21.4978 22.1046 21.725 22.1983 21.9618 22.1983C22.1985 22.1983 22.4257 22.1046 22.5936 21.9377C22.7606 21.7697 22.8542 21.5426 22.8542 21.3058C22.8542 21.069 22.7606 20.8419 22.5936 20.6739C22.2034 20.2825 21.9843 19.7523 21.9843 19.1996C21.9843 18.6468 22.2034 18.1167 22.5936 17.7252L28.1505 12.1415C28.3454 11.9453 28.5772 11.7896 28.8325 11.6833C29.0879 11.5771 29.3617 11.5224 29.6383 11.5224C29.9148 11.5224 30.1887 11.5771 30.444 11.6833C30.6994 11.7896 30.9312 11.9453 31.1261 12.1415L32.103 13.1184C32.2992 13.3133 32.4549 13.5451 32.5612 13.8005C32.6674 14.0558 32.7221 14.3296 32.7221 14.6062C32.7221 14.8828 32.6674 15.1566 32.5612 15.4119C32.4549 15.6673 32.2992 15.8991 32.103 16.094L29.6562 18.5498C29.5732 18.6333 29.5075 18.7324 29.4628 18.8414C29.4182 18.9503 29.3954 19.067 29.3958 19.1848C29.3962 19.3026 29.4198 19.4191 29.4653 19.5277C29.5107 19.6364 29.5771 19.735 29.6607 19.818C29.7443 19.901 29.8433 19.9667 29.9523 20.0114C30.0613 20.056 30.178 20.0788 30.2957 20.0784C30.4135 20.078 30.53 20.0544 30.6387 20.0089C30.7473 19.9635 30.8459 19.8971 30.9289 19.8135L33.3847 17.3667C34.1132 16.6344 34.5221 15.6436 34.5221 14.6107C34.5221 13.5778 34.1132 12.5869 33.3847 11.8547L32.3898 10.8688Z" fill="#EBE8EB"/>
</g>
<defs>
<filter id="filter0_d_1273_1975" x="-0.00043416" y="0" width="47.5282" height="47.5278" filterUnits="userSpaceOnUse" color-interpolation-filters="sRGB">
<feFlood flood-opacity="0" result="BackgroundImageFix"/>
<feColorMatrix in="SourceAlpha" type="matrix" values="0 0 0 0 0 0 0 0 0 0 0 0 0 0 0 0 0 0 127 0" result="hardAlpha"/>
<feOffset dy="3.27778"/>
<feGaussianBlur stdDeviation="1.63889"/>
<feComposite in2="hardAlpha" operator="out"/>
<feColorMatrix type="matrix" values="0 0 0 0 0 0 0 0 0 0 0 0 0 0 0 0 0 0 0.25 0"/>
<feBlend mode="normal" in2="BackgroundImageFix" result="effect1_dropShadow_1273_1975"/>
<feBlend mode="normal" in="SourceGraphic" in2="effect1_dropShadow_1273_1975" result="shape"/>
</filter>
<linearGradient id="paint0_linear_1273_1975" x1="43.1177" y1="1.72302e-06" x2="4.40926" y2="40.9722" gradientUnits="userSpaceOnUse">
<stop stop-color="#9516DF"/>
<stop offset="1" stop-color="#510C79"/>
</linearGradient>
</defs>
</svg>
