<svg width="48" height="48" viewBox="0 0 48 48" fill="none" xmlns="http://www.w3.org/2000/svg">
<g filter="url(#filter0_d_1273_2009)">
<rect x="3.27734" width="40.9722" height="40.9722" rx="6.55556" fill="#9516DF"/>
<rect x="3.27734" width="40.9722" height="40.9722" rx="6.55556" fill="url(#paint0_linear_1273_2009)"/>
<path d="M10.6523 14.5774L10.6601 14.5689C10.7351 14.485 10.7702 14.3514 10.8135 14.2474C11.2635 13.1662 12.4939 13.2527 13.4365 13.2526L14.9895 13.2534L16.2849 13.2529C16.6884 13.2531 17.1182 13.2433 17.5127 13.3158C17.9638 13.3987 18.2806 13.5213 18.6236 13.833C18.8486 14.0375 18.9324 14.2736 19.0361 14.5502C19.0522 14.5934 19.1246 14.7294 19.1296 14.7592C19.1676 14.9871 19.2449 15.3459 19.2544 15.5668C19.2686 15.8947 19.2611 16.2571 19.2609 16.5866L19.2604 18.48L19.263 20.2503C19.2637 20.6666 19.2735 21.1372 19.2346 21.5502L19.2404 21.5435C19.331 21.4369 19.3739 21.3291 19.4375 21.2072C19.5077 21.0728 19.5946 20.9334 19.658 20.7975C19.7446 20.6117 19.823 20.42 19.9112 20.2346C19.9389 20.1762 19.9905 20.1521 20.017 20.0918C20.1062 19.8884 20.1901 19.693 20.2915 19.495C20.3544 19.3634 20.4494 19.2449 20.5135 19.1148C20.5624 19.0153 20.5828 18.9127 20.6384 18.8124C20.8023 18.5167 20.9684 18.2288 21.1095 17.9213C21.1615 17.808 21.2547 17.6896 21.311 17.5762C21.4567 17.334 21.5493 17.0647 21.6716 16.8105C21.7927 16.5589 21.9306 16.315 22.0451 16.0596C22.0908 15.9591 22.2047 15.8616 22.2525 15.7574C22.3396 15.5681 22.4157 15.3735 22.5035 15.1844C22.528 15.1317 22.5591 15.0594 22.5893 15.0101C22.801 14.6651 23.0576 14.356 23.3279 14.0562C23.4102 13.9687 23.5263 13.8976 23.6138 13.8212C24.0047 13.48 24.4989 13.3182 25.0015 13.2727C26.0818 13.175 27.1899 13.3469 27.6102 14.4902C27.6478 14.5926 27.711 14.7044 27.7364 14.8148C27.7659 14.9396 27.7795 15.0813 27.8017 15.2089C27.8177 15.3013 27.85 15.433 27.8548 15.5229C27.873 15.8636 27.8668 16.2138 27.8666 16.5556L27.8663 18.3594L27.8703 20.1956C27.8708 20.533 27.8757 21.227 27.8205 21.5507C27.9961 21.3535 27.9764 21.2375 28.0908 21.0519C28.3589 20.6174 28.5712 20.1988 28.7961 19.7429C28.9388 19.4482 29.09 19.1577 29.2495 18.8717C29.434 18.5483 29.5932 18.2915 29.7559 17.948C29.9017 17.6398 30.1288 17.3288 30.2506 16.996C30.2973 16.8993 30.4481 16.7471 30.4814 16.6609C30.6091 16.3298 30.749 16.0564 30.9403 15.7578C31.0324 15.6138 31.096 15.4092 31.1897 15.2606C31.2544 15.1297 31.3722 14.9883 31.431 14.8643C31.5616 14.589 31.6913 14.4453 31.8838 14.2176C32.3696 13.6427 32.9738 13.3128 33.7299 13.2696C34.5629 13.227 35.6595 13.227 36.3382 13.798C36.5945 14.0135 36.836 14.4589 36.8646 14.7908C36.9161 15.3912 36.762 15.7287 36.5247 16.2659C36.4275 16.4857 36.2869 16.6564 36.1675 16.8594L35.3101 18.2839L32.5809 22.8784C32.4648 23.072 32.3782 23.3392 32.2571 23.5298C32.2482 23.5439 32.1487 23.6264 32.1364 23.6466C32.082 23.7364 32.0337 23.8414 31.981 23.9328L31.4823 24.7861C31.0652 25.4888 30.6034 26.1706 30.0107 26.7415C29.9503 26.7997 29.8697 26.8461 29.8051 26.8994C28.1032 28.3062 24.684 27.9454 24.0906 25.5269C24.0602 25.4029 23.9939 25.2625 23.9789 25.13C23.8568 23.9581 23.9841 22.7476 23.9102 21.5762C23.8982 21.4014 23.9348 21.1262 23.959 20.9473C23.8853 21.0722 23.7942 21.2554 23.7327 21.385C23.6957 21.4959 23.6114 21.5672 23.554 21.6711L23.0217 22.6557C22.9591 22.7735 22.8977 22.9521 22.8306 23.0548C22.5231 23.5259 22.3777 24.0575 22.0417 24.509C22.0071 24.5556 21.837 24.8707 21.8108 24.929C21.5995 25.3994 21.3474 25.7729 21.0186 26.1687C20.7111 26.541 20.1641 27.0394 19.7379 27.272C19.4577 27.4249 18.7429 27.6394 18.4348 27.6817C17.7217 27.7806 16.9951 27.7007 16.3207 27.4488C15.0801 26.9958 14.371 25.878 14.3585 24.5647C14.3541 24.1141 14.3591 23.663 14.3596 23.2123L14.3597 19.2934L14.3593 18.1496C14.3591 17.8165 14.369 17.4923 14.3207 17.1613C14.3167 17.1334 14.3121 17.074 14.2893 17.0716C13.7578 17.0147 12.9258 17.0933 12.421 17.0366C11.6881 16.9569 11.0986 16.6771 10.7932 15.9708C10.7494 15.8696 10.7446 15.7395 10.6523 15.6768V14.5774Z" fill="white"/>
</g>
<defs>
<filter id="filter0_d_1273_2009" x="-0.00043416" y="0" width="47.5282" height="47.5278" filterUnits="userSpaceOnUse" color-interpolation-filters="sRGB">
<feFlood flood-opacity="0" result="BackgroundImageFix"/>
<feColorMatrix in="SourceAlpha" type="matrix" values="0 0 0 0 0 0 0 0 0 0 0 0 0 0 0 0 0 0 127 0" result="hardAlpha"/>
<feOffset dy="3.27778"/>
<feGaussianBlur stdDeviation="1.63889"/>
<feComposite in2="hardAlpha" operator="out"/>
<feColorMatrix type="matrix" values="0 0 0 0 0 0 0 0 0 0 0 0 0 0 0 0 0 0 0.25 0"/>
<feBlend mode="normal" in2="BackgroundImageFix" result="effect1_dropShadow_1273_2009"/>
<feBlend mode="normal" in="SourceGraphic" in2="effect1_dropShadow_1273_2009" result="shape"/>
</filter>
<linearGradient id="paint0_linear_1273_2009" x1="43.1177" y1="1.72302e-06" x2="4.40926" y2="40.9722" gradientUnits="userSpaceOnUse">
<stop stop-color="#9516DF"/>
<stop offset="1" stop-color="#510C79"/>
</linearGradient>
</defs>
</svg>
